<svg width="20" height="20" viewBox="0 0 20 20" xmlns="http://www.w3.org/2000/svg"><path d="M19.93 15.44c0 .653-.535 1.188-1.186 1.188H4.162l1.303 1.303c.395.396.49 1.023.186 1.512-.417.65-1.3.698-1.813.186L.35 16.138c-.396-.394-.396-1 0-1.394l3.463-3.465c.512-.512 1.396-.442 1.815.185.302.465.21 1.117-.187 1.512l-1.3 1.303h14.604c.675-.024 1.186.51 1.186 1.162zm-.28-11.58L16.187.396c-.51-.51-1.395-.44-1.814.186-.302.466-.21 1.118.187 1.513l1.3 1.303H1.234c-.65 0-1.187.535-1.187 1.186 0 .65.536 1.187 1.187 1.187h14.605l-1.303 1.3c-.395.396-.49 1.024-.186 1.513.418.65 1.302.698 1.813.186l3.465-3.466c.418-.42.418-1.048.023-1.443z" fill="#FFF" fill-rule="nonzero"/></svg>