<svg width="11" height="12" viewBox="0 0 11 12" xmlns="http://www.w3.org/2000/svg"><path d="M4 5.25v4.5c0 .14-.11.25-.25.25h-.5C3.11 10 3 9.89 3 9.75v-4.5c0-.14.11-.25.25-.25h.5c.14 0 .25.11.25.25zm2 0v4.5c0 .14-.11.25-.25.25h-.5C5.11 10 5 9.89 5 9.75v-4.5c0-.14.11-.25.25-.25h.5c.14 0 .25.11.25.25zm2 0v4.5c0 .14-.11.25-.25.25h-.5C7.11 10 7 9.89 7 9.75v-4.5c0-.14.11-.25.25-.25h.5c.14 0 .25.11.25.25zm1 5.156V3H2v7.406c0 .375.21.594.25.594h6.5c.04 0 .25-.22.25-.594zM3.5 2h4l-.43-.914c-.025-.03-.106-.078-.15-.086H4.09c-.054.008-.126.055-.152.086L3.5 2zm7.5.25v.5c0 .14-.11.25-.25.25H10v7.406C10 11.266 9.437 12 8.75 12h-6.5C1.562 12 1 11.297 1 10.437V3H.25C.11 3 0 2.89 0 2.75v-.5C0 2.11.11 2 .25 2h2.414L3.21.695C3.368.313 3.837 0 4.25 0h2.5c.414 0 .883.313 1.04.695L8.335 2h2.414c.14 0 .25.11.25.25z" fill="#FFF" fill-rule="evenodd"/></svg>